<svg width="296" height="188" viewBox="0 0 296 188" fill="none" xmlns="http://www.w3.org/2000/svg">
<path d="M261.814 9.21999C264.084 9.21999 265.924 7.37989 265.924 5.11C265.924 2.84011 264.084 1 261.814 1C259.544 1 257.704 2.84011 257.704 5.11C257.704 7.37989 259.544 9.21999 261.814 9.21999Z" stroke="white" stroke-opacity="0.18" stroke-width="1.784" stroke-miterlimit="10"/>
<path d="M104.11 9.2239C106.38 9.2239 108.22 7.38379 108.22 5.1139C108.22 2.84401 106.38 1.00391 104.11 1.00391C101.84 1.00391 100 2.84401 100 5.1139C100 7.38379 101.84 9.2239 104.11 9.2239Z" stroke="white" stroke-opacity="0.18" stroke-width="1.784" stroke-miterlimit="10"/>
<path d="M92.11 186.224C94.3799 186.224 96.22 184.384 96.22 182.114C96.22 179.844 94.3799 178.004 92.11 178.004C89.8401 178.004 88 179.844 88 182.114C88 184.384 89.8401 186.224 92.11 186.224Z" stroke="white" stroke-opacity="0.18" stroke-width="1.784" stroke-miterlimit="10"/>
<path d="M162.489 18.0039C162.489 18.0039 161.1 20.3317 163.003 21.7198C164.907 23.1079 166.563 20.5154 168.678 22.1162C170.792 23.7171 169.033 25.6724 169.033 25.6724" stroke="white" stroke-opacity="0.18" stroke-width="1.784" stroke-miterlimit="10"/>
<path d="M3.11531 147.032C3.11531 147.032 5.05016 148.931 6.84772 147.408C8.64528 145.886 6.51613 143.665 8.57022 141.987C10.6243 140.31 12.11 142.48 12.11 142.48" stroke="white" stroke-opacity="0.18" stroke-width="1.784" stroke-miterlimit="10"/>
<path d="M286.115 114.032C286.115 114.032 288.05 115.931 289.848 114.408C291.645 112.886 289.516 110.665 291.57 108.987C293.624 107.31 295.11 109.48 295.11 109.48" stroke="white" stroke-opacity="0.18" stroke-width="1.784" stroke-miterlimit="10"/>
<path d="M5.44153 76.7241C5.44164 77.2622 5.28217 77.7883 4.98328 78.2358C4.68439 78.6833 4.25951 79.0321 3.76237 79.2382C3.26523 79.4442 2.71814 79.4981 2.19033 79.3932C1.66252 79.2883 1.17767 79.0292 0.797111 78.6487C0.416547 78.2683 0.157351 77.7835 0.0523224 77.2557C-0.052706 76.7279 0.0011407 76.1808 0.207051 75.6836C0.412962 75.1864 0.761695 74.7615 1.20913 74.4625C1.65657 74.1635 2.18263 74.0039 2.72077 74.0039C3.07804 74.0038 3.43181 74.0741 3.76191 74.2108C4.092 74.3475 4.39194 74.5478 4.64459 74.8004C4.89725 75.053 5.09767 75.3529 5.2344 75.683C5.37114 76.013 5.44153 76.3668 5.44153 76.7241Z" fill="#EAEAEA"/>
<path d="M54.1252 28.5665C54.1252 29.2711 53.9162 29.9599 53.5248 30.5457C53.1333 31.1316 52.5769 31.5882 51.9259 31.8579C51.2749 32.1275 50.5586 32.1981 49.8676 32.0606C49.1765 31.9231 48.5417 31.5838 48.0435 31.0856C47.5452 30.5874 47.2059 29.9526 47.0685 29.2615C46.931 28.5704 47.0015 27.8541 47.2712 27.2031C47.5408 26.5522 47.9975 25.9958 48.5833 25.6043C49.1692 25.2128 49.858 25.0039 50.5626 25.0039C51.5074 25.0039 52.4136 25.3792 53.0817 26.0474C53.7498 26.7155 54.1252 27.6216 54.1252 28.5665Z" fill="white"/>
<path d="M269.125 174.566C269.125 175.271 268.916 175.96 268.525 176.546C268.133 177.132 267.577 177.588 266.926 177.858C266.275 178.128 265.559 178.198 264.868 178.061C264.176 177.923 263.542 177.584 263.043 177.086C262.545 176.587 262.206 175.953 262.068 175.262C261.931 174.57 262.002 173.854 262.271 173.203C262.541 172.552 262.997 171.996 263.583 171.604C264.169 171.213 264.858 171.004 265.563 171.004C266.507 171.004 267.414 171.379 268.082 172.047C268.75 172.715 269.125 173.622 269.125 174.566Z" fill="white"/>
<path d="M286.125 21.5665C286.125 22.2711 285.916 22.9599 285.525 23.5457C285.133 24.1316 284.577 24.5882 283.926 24.8579C283.275 25.1275 282.559 25.1981 281.868 25.0606C281.176 24.9231 280.542 24.5838 280.043 24.0856C279.545 23.5874 279.206 22.9526 279.068 22.2615C278.931 21.5704 279.002 20.8541 279.271 20.2031C279.541 19.5522 279.997 18.9958 280.583 18.6043C281.169 18.2128 281.858 18.0039 282.563 18.0039C283.507 18.0039 284.414 18.3792 285.082 19.0474C285.75 19.7155 286.125 20.6216 286.125 21.5665Z" fill="white"/>
</svg>
