<svg width="237" height="143" viewBox="0 0 237 143" fill="none" xmlns="http://www.w3.org/2000/svg">
<path d="M55.3566 5.89788C55.3566 5.89788 54.3419 2.34647 47.2391 2.34647C41.5949 2.34647 37.5996 20.6743 31.1943 37.3532C29.8626 37.2264 28.5308 37.0996 27.2624 37.0996C22.3792 37.0996 18.3205 38.3045 16.5448 40.651C15.6569 41.7925 15.2764 43.3145 15.2764 44.9634C15.2764 45.7244 15.3398 46.4854 15.5301 47.2465C16.2277 50.1003 18.0668 52.7638 20.7304 53.2078H20.8572C21.1743 53.2078 21.428 53.0175 21.428 52.7004V52.3199C21.428 49.6563 24.0915 46.8659 27.8966 45.0902C22.95 55.4908 16.6716 63.7352 7.72966 63.7352C5.0661 63.7352 3.6709 62.5936 2.9733 61.7058C2.78305 61.4521 2.52938 61.2618 2.21229 61.2618C2.02203 61.2618 1.83178 61.3887 1.70494 61.5789C0.943926 62.9741 0.5 64.4962 0.5 65.9548C0.5 66.6524 0.626836 67.2866 0.753672 67.9207C1.76836 72.36 6.08079 76.2285 12.1055 76.2285C22.95 76.2285 29.7357 60.1837 34.8726 43.3145C35.3799 43.3145 35.8239 43.2511 36.2678 43.2511C37.7898 43.2511 39.3119 43.4414 40.8339 43.8219C40.0729 50.5442 39.5021 56.8226 39.5021 61.3887C39.5021 63.5449 39.6289 65.384 39.946 66.6524C41.912 75.2138 47.8733 76.8627 52.2491 76.8627C54.0248 76.8627 55.6103 76.5456 56.4347 76.3553C56.625 76.2919 56.6884 76.1017 56.6884 75.9114C56.625 75.848 56.5616 75.7212 56.4981 75.6577C54.7859 73.9455 53.5809 71.0916 52.7565 67.5402C51.6784 62.7839 51.2344 56.7592 51.2344 50.3539C51.2344 30.1236 55.3566 5.89788 55.3566 5.89788ZM36.3946 38.3679C40.1363 25.4306 43.0535 12.9373 46.2878 7.73701C45.0829 14.8398 42.8633 27.8405 41.3412 40.0802C39.6924 39.3826 38.0435 38.8119 36.3946 38.3679Z" fill="white"/>
<path d="M72.9695 24.9867C64.5983 24.9867 61.9348 28.7918 61.9348 34.1823C61.9348 35.958 62.2518 37.924 62.6958 39.9534C64.4081 47.3733 68.5302 55.9981 69.862 61.8326C70.1157 63.0376 70.3059 64.1157 70.3059 65.0035C70.3059 67.2866 69.3547 68.6818 66.7545 68.6818C62.1884 68.6818 59.2078 61.7058 58.2565 58.0909C58.1931 57.7739 57.876 57.5836 57.6223 57.5836C57.4955 57.5836 57.4321 57.5836 57.3687 57.647C56.4808 58.2178 55.9735 59.7398 55.9735 61.7692C55.9735 62.7205 56.1003 63.7351 56.354 64.8133C57.6223 70.077 61.9982 76.2285 71.6377 76.2285C78.8674 76.2285 81.2138 72.8673 81.2138 67.9207C81.2138 66.3353 80.9602 64.4962 80.5163 62.5936C78.7405 55.1103 74.3013 46.0415 72.8427 39.6363C72.5256 38.3679 72.3987 37.163 72.3987 36.1483C72.3987 33.4213 73.5403 31.7724 76.7112 31.7724C79.3747 31.7724 80.4528 34.1823 80.8333 35.958L80.9602 36.7191C81.087 37.163 81.5309 37.4801 81.9749 37.4801C82.0383 37.4801 82.1651 37.4801 82.2285 37.4167C83.3066 36.9727 83.8774 35.8312 83.8774 34.3726C83.8774 33.8652 83.814 33.3579 83.6872 32.7871C82.8627 29.2357 79.3113 24.9867 72.9695 24.9867Z" fill="white"/>
<path d="M102.547 24.733C92.0826 24.733 85.9311 39.8265 85.9311 53.5883C85.9311 56.7592 86.2481 59.8667 86.8823 62.657C88.658 70.2672 92.9071 76.0383 100.073 76.0383C111.298 76.0383 117.006 61.9594 117.006 48.5782C117.006 45.3439 116.689 42.1096 115.991 39.1289C114.089 30.948 109.649 24.733 102.547 24.733ZM100.073 71.7892C99.2489 71.7892 98.6147 70.7111 98.1707 68.872C97.6634 66.7792 97.4732 63.6717 97.4732 60.1203C97.4732 47.8172 100.137 30.1236 103.752 30.1236C104.893 30.1236 105.654 31.3285 106.098 33.3579C106.542 35.197 106.732 37.6703 106.732 40.5241C106.732 52.8907 103.181 71.7892 100.073 71.7892Z" fill="white"/>
<path d="M137.275 24.8599C127.129 24.8599 121.421 37.2264 121.421 49.7832C121.421 52.7638 121.738 55.7445 122.372 58.5349C124.655 68.1744 130.807 76.1651 141.588 76.1651C149.261 76.1651 152.242 66.9061 152.242 61.0716C152.242 60.0569 152.179 59.1691 151.988 58.408C151.671 57.2665 151.227 56.5055 150.657 56.3787C150.53 56.3787 150.466 56.4421 150.466 56.5689C150.53 56.886 150.53 57.2665 150.53 57.647C150.53 62.34 146.598 71.2185 141.081 71.2185C137.529 71.2185 135.246 67.6671 134.105 62.5936C133.47 59.7398 133.153 56.4421 133.153 53.0809C133.153 41.9828 136.451 29.8699 141.905 29.8699C143.49 29.8699 144.251 31.3919 144.759 33.4213C145.266 35.7044 145.393 38.6216 145.964 40.8412C146.344 42.7438 147.042 44.139 148.437 44.139C149.959 44.139 151.291 42.6169 151.291 39.5095C151.291 38.5582 151.164 37.4167 150.847 36.1483C149.642 30.8212 145.266 24.8599 137.275 24.8599Z" fill="white"/>
<path d="M157.88 30.3138C158.387 30.4407 158.704 30.948 158.895 31.8359C159.085 32.5969 159.148 33.5482 159.148 34.6897C159.148 41.2217 156.865 53.6517 156.865 61.5789C156.865 63.3546 156.929 64.9401 157.246 66.145V66.2719C159.719 76.1651 164.285 76.1651 166.505 76.1651C168.407 76.1651 171.071 74.2626 171.959 73.6284V73.5015L171.832 73.3747C170.31 73.1844 169.359 71.599 168.788 69.1257C168.28 66.9695 168.09 64.1157 168.09 61.0082C168.09 49.7832 170.563 34.436 170.563 30.1236C170.563 29.7431 170.563 29.426 170.5 29.2357C169.802 26.2551 167.329 24.8599 164.666 24.8599C160.543 24.8599 157.499 26.0014 157.499 29.0455C157.499 29.2991 157.499 29.6162 157.563 29.9333C157.563 30.0602 157.69 30.2504 157.88 30.3138ZM165.807 22.45C168.534 22.45 170.373 20.6109 170.373 18.0107C170.373 17.6302 170.31 17.1229 170.183 16.679C169.485 13.508 166.314 10.9713 163.144 10.9713C160.417 10.9713 158.514 12.8104 158.514 15.3472C158.514 15.7911 158.577 16.235 158.704 16.679C159.465 19.9133 162.636 22.45 165.807 22.45Z" fill="white"/>
<path d="M216.771 74.3894C214.678 74.1991 213.41 72.2332 212.712 69.3159C212.205 67.2231 212.015 64.623 212.015 61.7692C212.015 49.149 215.883 31.3919 215.883 30.1236V30.0602C215.249 27.3332 213.156 25.0501 208.019 24.8599C207.702 24.8599 207.385 25.0501 207.322 25.3672C206.878 26.5088 205.8 29.7431 204.595 33.9287C201.677 27.2064 196.921 24.8599 192.228 24.8599C181.384 24.8599 175.422 39.2558 175.422 52.8272C175.422 55.9347 175.739 59.0422 176.374 61.896C178.213 70.0135 182.779 76.1651 190.326 76.1651C194.892 76.1651 198.507 68.0476 201.107 59.613C201.17 60.6911 201.297 61.7058 201.551 62.657C204.531 75.7212 212.585 76.1651 214.868 76.1651C216.454 76.1651 216.961 75.2138 217.025 74.7065V74.5796C216.961 74.5162 216.898 74.3894 216.771 74.3894ZM203.009 40.1436C201.868 43.8219 193.623 70.5209 188.867 70.5209C188.169 70.5209 187.599 69.5696 187.218 67.9207C186.838 66.2085 186.647 63.862 186.647 61.0716C186.647 49.2124 190.199 30.3138 197.682 30.3138C200.473 30.3138 202.502 33.9921 203.77 37.0996C203.517 38.0508 203.263 39.0655 203.009 40.1436Z" fill="white"/>
<path d="M236.006 74.9602C234.358 74.7699 233.343 73.0576 232.645 70.2038C232.011 67.4768 231.757 63.7352 231.757 59.4227C231.757 41.1583 236.324 12.5568 236.324 5.89788C236.324 5.45396 236.324 5.07345 236.26 4.81978C235.626 2.0928 234.358 0 228.84 0C226.494 0 220.406 1.33178 220.406 5.83446C220.406 6.15155 220.469 6.53206 220.532 6.91257C220.532 7.03941 220.659 7.10282 220.786 7.10282C221.737 7.22966 222.435 8.37119 222.879 10.2103C223.323 12.0494 223.45 14.5227 223.45 17.5034C223.45 30.1236 220.342 50.7979 220.342 59.613C220.342 60.8813 220.469 61.9594 220.596 62.657L220.659 63.101C223.576 75.7212 231.757 76.7359 234.04 76.7359C235.689 76.7359 236.133 75.7846 236.26 75.2772V75.2138C236.197 75.087 236.07 75.0236 236.006 74.9602Z" fill="white"/>
<g opacity="0.12">
<path d="M55.6256 137.644C55.6256 137.644 54.6115 140.721 47.5123 140.721C41.8709 140.721 37.8776 124.843 31.4756 110.393C30.1445 110.503 28.8134 110.613 27.5457 110.613C22.665 110.613 18.6083 109.569 16.8335 107.536C15.9461 106.548 15.5658 105.229 15.5658 103.8C15.5658 103.141 15.6292 102.482 15.8193 101.823C16.5166 99.3502 18.3548 97.0427 21.017 96.6581H21.1437C21.4607 96.6581 21.7142 96.8229 21.7142 97.0976V97.4273C21.7142 99.7348 24.3764 102.152 28.1796 103.691C23.2355 94.6802 16.9603 87.5378 8.02286 87.5378C5.36066 87.5378 3.96617 88.5268 3.26892 89.2959C3.07877 89.5157 2.82522 89.6805 2.50829 89.6805C2.31814 89.6805 2.12798 89.5706 2.00121 89.4058C1.24058 88.1971 0.796875 86.8785 0.796875 85.6149C0.796875 85.0105 0.923647 84.4611 1.05042 83.9117C2.06459 80.0658 6.37483 76.7144 12.3965 76.7144C23.2355 76.7144 30.0178 90.6145 35.152 105.229C35.6591 105.229 36.1028 105.284 36.5465 105.284C38.0678 105.284 39.589 105.119 41.1103 104.789C40.3497 98.9656 39.7792 93.5264 39.7792 89.5706C39.7792 87.7026 39.906 86.1093 40.2229 85.0105C42.1878 77.5934 48.1461 76.1649 52.5197 76.1649C54.2945 76.1649 55.8792 76.4397 56.7032 76.6045C56.8934 76.6594 56.9567 76.8242 56.9567 76.9891C56.8934 77.044 56.83 77.1539 56.7666 77.2088C55.0552 78.6923 53.8508 81.1646 53.0268 84.2413C51.9493 88.3619 51.5056 93.5814 51.5056 99.1304C51.5056 116.657 55.6256 137.644 55.6256 137.644ZM36.6733 109.514C40.413 120.722 43.3288 131.546 46.5615 136.051C45.3571 129.898 43.1386 118.635 41.6174 108.031C39.9693 108.635 38.3213 109.13 36.6733 109.514Z" fill="url(#paint0_linear_2105_62)"/>
<path d="M73.2296 121.107C64.8626 121.107 62.2004 117.811 62.2004 113.14C62.2004 111.602 62.5174 109.899 62.9611 108.141C64.6725 101.713 68.7926 94.2407 70.1237 89.1861C70.3772 88.1422 70.5674 87.2082 70.5674 86.439C70.5674 84.4611 69.6166 83.2524 67.0178 83.2524C62.454 83.2524 59.4748 89.2959 58.5241 92.4276C58.4607 92.7023 58.1437 92.8671 57.8902 92.8671C57.7634 92.8671 57.7 92.8671 57.6367 92.8122C56.7493 92.3177 56.2422 90.9991 56.2422 89.241C56.2422 88.4169 56.3689 87.5378 56.6225 86.6038C57.8902 82.0437 62.2638 76.7144 71.8985 76.7144C79.1245 76.7144 81.4697 79.6263 81.4697 83.9117C81.4697 85.2852 81.2162 86.8785 80.7725 88.5268C78.9977 95.0098 74.5607 102.866 73.1028 108.416C72.7859 109.514 72.6591 110.558 72.6591 111.437C72.6591 113.8 73.8 115.228 76.9693 115.228C79.6315 115.228 80.7091 113.141 81.0894 111.602L81.2162 110.943C81.343 110.558 81.7867 110.284 82.2304 110.284C82.2938 110.284 82.4205 110.284 82.4839 110.338C83.5615 110.723 84.132 111.712 84.132 112.976C84.132 113.415 84.0686 113.855 83.9418 114.349C83.1178 117.426 79.5682 121.107 73.2296 121.107Z" fill="url(#paint1_linear_2105_62)"/>
<path d="M102.792 121.327C92.333 121.327 86.1846 108.251 86.1846 96.3284C86.1846 93.5814 86.5015 90.8892 87.1353 88.4718C88.9101 81.8789 93.157 76.8792 100.32 76.8792C111.539 76.8792 117.244 89.0762 117.244 100.669C117.244 103.471 116.927 106.273 116.229 108.855C114.328 115.943 109.891 121.327 102.792 121.327ZM100.32 80.5603C99.4956 80.5603 98.8617 81.4943 98.418 83.0876C97.9109 84.9006 97.7208 87.5928 97.7208 90.6695C97.7208 101.328 100.383 116.657 103.996 116.657C105.137 116.657 105.898 115.613 106.341 113.855C106.785 112.261 106.975 110.119 106.975 107.646C106.975 96.9328 103.426 80.5603 100.32 80.5603Z" fill="url(#paint2_linear_2105_62)"/>
<path d="M137.503 121.217C127.361 121.217 121.656 110.503 121.656 99.6249C121.656 97.0427 121.973 94.4604 122.607 92.043C124.889 83.6919 131.037 76.7693 141.813 76.7693C149.483 76.7693 152.462 84.7907 152.462 89.8454C152.462 90.7244 152.399 91.4936 152.208 92.1529C151.891 93.1418 151.448 93.8011 150.877 93.911C150.75 93.911 150.687 93.8561 150.687 93.7462C150.75 93.4715 150.75 93.1418 150.75 92.8122C150.75 88.7465 146.821 81.0547 141.306 81.0547C137.756 81.0547 135.474 84.1315 134.334 88.5268C133.7 90.9991 133.383 93.8561 133.383 96.768C133.383 106.383 136.679 116.877 142.13 116.877C143.715 116.877 144.475 115.558 144.982 113.8C145.489 111.822 145.616 109.295 146.187 107.372C146.567 105.723 147.264 104.515 148.659 104.515C150.18 104.515 151.511 105.833 151.511 108.525C151.511 109.35 151.384 110.338 151.067 111.437C149.863 116.052 145.489 121.217 137.503 121.217Z" fill="url(#paint3_linear_2105_62)"/>
<path d="M158.097 116.492C158.604 116.382 158.921 115.943 159.111 115.173C159.301 114.514 159.365 113.69 159.365 112.701C159.365 107.042 157.083 96.2735 157.083 89.4058C157.083 87.8675 157.146 86.4939 157.463 85.45V85.3402C159.935 76.7693 164.499 76.7693 166.717 76.7693C168.619 76.7693 171.281 78.4175 172.168 78.967V79.0768L172.042 79.1867C170.52 79.3516 169.57 80.7251 168.999 82.8678C168.492 84.7358 168.302 87.2082 168.302 89.9003C168.302 99.6249 170.774 112.921 170.774 116.657C170.774 116.986 170.774 117.261 170.711 117.426C170.013 120.008 167.541 121.217 164.879 121.217C160.759 121.217 157.716 120.228 157.716 117.591C157.716 117.371 157.716 117.096 157.78 116.822C157.78 116.712 157.907 116.547 158.097 116.492ZM166.02 123.305C168.746 123.305 170.584 124.898 170.584 127.151C170.584 127.48 170.52 127.92 170.394 128.304C169.696 131.051 166.527 133.249 163.358 133.249C160.632 133.249 158.731 131.656 158.731 129.458C158.731 129.073 158.794 128.689 158.921 128.304C159.681 125.502 162.851 123.305 166.02 123.305Z" fill="url(#paint4_linear_2105_62)"/>
<path d="M216.958 78.3077C214.866 78.4725 213.599 80.1757 212.901 82.703C212.394 84.516 212.204 86.7686 212.204 89.241C212.204 100.174 216.071 115.558 216.071 116.657V116.712C215.437 119.074 213.345 121.052 208.211 121.217C207.894 121.217 207.577 121.052 207.514 120.777C207.07 119.788 205.992 116.986 204.788 113.36C201.872 119.184 197.118 121.217 192.428 121.217C181.589 121.217 175.63 108.745 175.63 96.9877C175.63 94.2956 175.947 91.6035 176.581 89.1311C178.419 82.0986 182.983 76.7693 190.526 76.7693C195.09 76.7693 198.703 83.8018 201.302 91.109C201.365 90.175 201.492 89.2959 201.745 88.4718C204.725 77.1539 212.775 76.7693 215.056 76.7693C216.641 76.7693 217.148 77.5934 217.212 78.033V78.1428C217.148 78.1978 217.085 78.3077 216.958 78.3077ZM203.203 107.976C202.062 104.789 193.822 81.6591 189.068 81.6591C188.371 81.6591 187.8 82.4832 187.42 83.9117C187.04 85.3951 186.85 87.4279 186.85 89.8454C186.85 100.119 190.399 116.492 197.879 116.492C200.668 116.492 202.696 113.305 203.964 110.613C203.71 109.789 203.457 108.91 203.203 107.976Z" fill="url(#paint5_linear_2105_62)"/>
<path d="M236.184 77.8132C234.536 77.978 233.522 79.4614 232.824 81.9338C232.19 84.2963 231.937 87.5378 231.937 91.2738C231.937 107.097 236.501 131.876 236.501 137.644C236.501 138.029 236.501 138.359 236.437 138.578C235.803 140.941 234.536 142.754 229.021 142.754C226.676 142.754 220.591 141.6 220.591 137.699C220.591 137.425 220.654 137.095 220.718 136.765C220.718 136.655 220.844 136.6 220.971 136.6C221.922 136.491 222.619 135.502 223.063 133.908C223.507 132.315 223.633 130.172 223.633 127.59C223.633 116.657 220.527 98.7459 220.527 91.109C220.527 90.0102 220.654 89.0762 220.781 88.4718L220.844 88.0872C223.76 77.1539 231.937 76.2748 234.219 76.2748C235.867 76.2748 236.31 77.099 236.437 77.5385V77.5934C236.374 77.7033 236.247 77.7582 236.184 77.8132Z" fill="url(#paint6_linear_2105_62)"/>
</g>
<defs>
<linearGradient id="paint0_linear_2105_62" x1="123.405" y1="76.1649" x2="123.934" y2="142.754" gradientUnits="userSpaceOnUse">
<stop stop-color="white"/>
<stop offset="1" stop-color="white" stop-opacity="0"/>
</linearGradient>
<linearGradient id="paint1_linear_2105_62" x1="123.405" y1="76.1649" x2="123.934" y2="142.754" gradientUnits="userSpaceOnUse">
<stop stop-color="white"/>
<stop offset="1" stop-color="white" stop-opacity="0"/>
</linearGradient>
<linearGradient id="paint2_linear_2105_62" x1="123.405" y1="76.1649" x2="123.934" y2="142.754" gradientUnits="userSpaceOnUse">
<stop stop-color="white"/>
<stop offset="1" stop-color="white" stop-opacity="0"/>
</linearGradient>
<linearGradient id="paint3_linear_2105_62" x1="123.405" y1="76.1649" x2="123.934" y2="142.754" gradientUnits="userSpaceOnUse">
<stop stop-color="white"/>
<stop offset="1" stop-color="white" stop-opacity="0"/>
</linearGradient>
<linearGradient id="paint4_linear_2105_62" x1="123.405" y1="76.1649" x2="123.934" y2="142.754" gradientUnits="userSpaceOnUse">
<stop stop-color="white"/>
<stop offset="1" stop-color="white" stop-opacity="0"/>
</linearGradient>
<linearGradient id="paint5_linear_2105_62" x1="123.405" y1="76.1649" x2="123.934" y2="142.754" gradientUnits="userSpaceOnUse">
<stop stop-color="white"/>
<stop offset="1" stop-color="white" stop-opacity="0"/>
</linearGradient>
<linearGradient id="paint6_linear_2105_62" x1="123.405" y1="76.1649" x2="123.934" y2="142.754" gradientUnits="userSpaceOnUse">
<stop stop-color="white"/>
<stop offset="1" stop-color="white" stop-opacity="0"/>
</linearGradient>
</defs>
</svg>
