<svg width="28" height="35" viewBox="0 0 28 35" fill="none" xmlns="http://www.w3.org/2000/svg">
<path d="M20.4555 0.537109H20.6974C20.8915 2.93486 19.9762 4.72646 18.864 6.02387C17.7726 7.31233 16.2781 8.56196 13.8609 8.37235C13.6997 6.00894 14.6164 4.35022 15.7272 3.05579C16.7574 1.84945 18.646 0.775989 20.4555 0.537109ZM27.7727 25.494V25.5612C27.0934 27.6186 26.1244 29.3818 24.942 31.0181C23.8625 32.5036 22.5397 34.5028 20.1778 34.5028C18.1369 34.5028 16.7812 33.1904 14.6895 33.1546C12.4769 33.1188 11.2601 34.2519 9.23713 34.5371H8.54737C7.06183 34.3221 5.86296 33.1456 4.98956 32.0856C2.41414 28.9533 0.423974 24.9073 0.0537109 19.7296V18.2082C0.210476 14.5026 2.01103 11.4897 4.4043 10.0296C5.66738 9.25322 7.40373 8.59182 9.33716 8.88744C10.1658 9.01583 11.0123 9.2995 11.7543 9.58019C12.4575 9.85042 13.3369 10.3297 14.17 10.3043C14.7343 10.2879 15.2957 9.99375 15.8645 9.78622C17.5307 9.18454 19.1641 8.49478 21.317 8.81876C23.9043 9.20992 25.7407 10.3595 26.8754 12.1332C24.6867 13.5262 22.9563 15.6253 23.2519 19.21C23.5147 22.4662 25.4078 24.3713 27.7727 25.494Z" fill="#202020"/>
</svg>
