<svg width="198" height="166" viewBox="0 0 198 166" fill="none" xmlns="http://www.w3.org/2000/svg">
<path d="M192.11 30.2161C194.38 30.2161 196.22 28.376 196.22 26.1061C196.22 23.8362 194.38 21.9961 192.11 21.9961C189.84 21.9961 188 23.8362 188 26.1061C188 28.376 189.84 30.2161 192.11 30.2161Z" stroke="#FFD7E6" stroke-width="1.784" stroke-miterlimit="10"/>
<path d="M58.11 20.22C60.3799 20.22 62.22 18.3799 62.22 16.11C62.22 13.8401 60.3799 12 58.11 12C55.8401 12 54 13.8401 54 16.11C54 18.3799 55.8401 20.22 58.11 20.22Z" stroke="#FFD7E6" stroke-width="1.784" stroke-miterlimit="10"/>
<path d="M68.11 164.216C70.3799 164.216 72.22 162.376 72.22 160.106C72.22 157.836 70.3799 155.996 68.11 155.996C65.8401 155.996 64 157.836 64 160.106C64 162.376 65.8401 164.216 68.11 164.216Z" stroke="#FFD7E6" stroke-width="1.784" stroke-miterlimit="10"/>
<path d="M1.11531 132.023C1.11531 132.023 3.05016 133.921 4.84772 132.399C6.64528 130.876 4.51613 128.655 6.57022 126.978C8.62431 125.3 10.11 127.47 10.11 127.47" stroke="#FFD7E6" stroke-width="1.784" stroke-miterlimit="10"/>
<path d="M162.115 141.023C162.115 141.023 164.05 142.921 165.848 141.399C167.645 139.876 165.516 137.655 167.57 135.978C169.624 134.3 171.11 136.47 171.11 136.47" stroke="#FFD7E6" stroke-width="1.784" stroke-miterlimit="10"/>
<path d="M5.44153 50.7163C5.44164 51.2544 5.28217 51.7805 4.98328 52.228C4.68439 52.6755 4.25951 53.0243 3.76237 53.2303C3.26523 53.4364 2.71814 53.4903 2.19033 53.3854C1.66252 53.2805 1.17767 53.0214 0.797111 52.6409C0.416547 52.2604 0.157351 51.7757 0.0523224 51.2479C-0.052706 50.7201 0.0011407 50.173 0.207051 49.6758C0.412962 49.1786 0.761695 48.7537 1.20913 48.4547C1.65657 48.1557 2.18263 47.9961 2.72077 47.9961C3.07804 47.996 3.43181 48.0663 3.76191 48.203C4.092 48.3397 4.39194 48.54 4.64459 48.7926C4.89725 49.0452 5.09767 49.3451 5.2344 49.6752C5.37114 50.0052 5.44153 50.359 5.44153 50.7163Z" fill="#EAEAEA"/>
<path d="M54.0765 142.296C33.7879 135.455 16.1914 118.454 12.5877 97.3457C8.98401 76.2374 22.292 52.4455 43.2109 47.8685C53.1006 45.7049 63.7743 47.6373 73.2235 44.0037C91.0435 37.1508 97.1027 13.9662 113.567 4.29762C129.429 -5.01875 151.177 1.69998 162.993 15.7994C174.809 29.8988 178.258 49.3538 177.533 67.7368C176.469 94.7448 164.994 123.873 140.501 135.293C119.86 144.916 76.2187 147.643 54.0819 142.296" fill="#9E9E9E" fill-opacity="0.07"/>
<path d="M90.2917 109.258L71.6436 90.3825L77.9089 84.2032L88.8021 95.2376L111.434 59.7598L118.86 64.4957L90.2917 109.258Z" fill="url(#paint0_linear_302_2458)"/>
<path d="M95.2532 133.246C85.6112 133.247 76.1856 130.388 68.1683 125.031C60.1511 119.675 53.9023 112.061 50.2123 103.153C46.5223 94.245 45.5566 84.4428 47.4376 74.986C49.3186 65.5292 53.9616 56.8426 60.7795 50.0247C67.5975 43.2067 76.2841 38.5637 85.7409 36.6827C95.1976 34.8018 105 35.7673 113.908 39.4574C122.816 43.1474 130.429 49.3962 135.786 57.4134C141.143 65.4307 144.001 74.8563 144.001 84.4983C143.986 97.4225 138.846 109.813 129.707 118.952C120.568 128.091 108.177 133.231 95.2532 133.246ZM95.2532 42.369C86.9207 42.3685 78.7752 44.839 71.8468 49.468C64.9183 54.0969 59.5182 60.6765 56.3292 68.3746C53.1402 76.0727 52.3056 84.5436 53.9309 92.716C55.5562 100.888 59.5685 108.395 65.4603 114.287C71.3521 120.18 78.8588 124.192 87.0312 125.818C95.2035 127.444 103.674 126.61 111.373 123.421C119.071 120.232 125.651 114.833 130.28 107.904C134.909 100.976 137.38 92.8308 137.38 84.4983C137.367 73.3292 132.925 62.6213 125.028 54.7233C117.13 46.8254 106.422 42.3824 95.2532 42.369Z" fill="url(#paint1_linear_302_2458)"/>
<path d="M33.9793 83.3965H19.5V85.6034H33.9793V83.3965Z" fill="url(#paint2_linear_302_2458)"/>
<path d="M28.9638 52.6973L27.4033 54.2578L37.6418 64.4963L39.2023 62.9358L28.9638 52.6973Z" fill="url(#paint3_linear_302_2458)"/>
<path d="M37.6418 104.019L27.4033 114.258L28.9638 115.818L39.2023 105.58L37.6418 104.019Z" fill="url(#paint4_linear_302_2458)"/>
<path d="M171.005 83.3945H156.525V85.6014H171.005V83.3945Z" fill="url(#paint5_linear_302_2458)"/>
<path d="M161.542 52.6971L151.304 62.9355L152.864 64.496L163.103 54.2576L161.542 52.6971Z" fill="url(#paint6_linear_302_2458)"/>
<path d="M152.866 104.022L151.306 105.582L161.543 115.819L163.103 114.258L152.866 104.022Z" fill="url(#paint7_linear_302_2458)"/>
<defs>
<linearGradient id="paint0_linear_302_2458" x1="95.2517" y1="59.7598" x2="95.2517" y2="109.258" gradientUnits="userSpaceOnUse">
<stop stop-color="#F85493"/>
<stop offset="1" stop-color="#D877E4"/>
</linearGradient>
<linearGradient id="paint1_linear_302_2458" x1="95.251" y1="35.7461" x2="95.251" y2="133.246" gradientUnits="userSpaceOnUse">
<stop stop-color="#F85493"/>
<stop offset="1" stop-color="#D877E4"/>
</linearGradient>
<linearGradient id="paint2_linear_302_2458" x1="26.7397" y1="83.3965" x2="26.7397" y2="85.6034" gradientUnits="userSpaceOnUse">
<stop stop-color="#F85493"/>
<stop offset="1" stop-color="#D877E4"/>
</linearGradient>
<linearGradient id="paint3_linear_302_2458" x1="28.1836" y1="53.4776" x2="38.422" y2="63.716" gradientUnits="userSpaceOnUse">
<stop stop-color="#F85493"/>
<stop offset="1" stop-color="#D877E4"/>
</linearGradient>
<linearGradient id="paint4_linear_302_2458" x1="32.5225" y1="109.139" x2="34.083" y2="110.699" gradientUnits="userSpaceOnUse">
<stop stop-color="#F85493"/>
<stop offset="1" stop-color="#D877E4"/>
</linearGradient>
<linearGradient id="paint5_linear_302_2458" x1="163.765" y1="83.3945" x2="163.765" y2="85.6014" gradientUnits="userSpaceOnUse">
<stop stop-color="#F85493"/>
<stop offset="1" stop-color="#D877E4"/>
</linearGradient>
<linearGradient id="paint6_linear_302_2458" x1="156.423" y1="57.8163" x2="157.983" y2="59.3768" gradientUnits="userSpaceOnUse">
<stop stop-color="#F85493"/>
<stop offset="1" stop-color="#D877E4"/>
</linearGradient>
<linearGradient id="paint7_linear_302_2458" x1="152.086" y1="104.802" x2="162.323" y2="115.039" gradientUnits="userSpaceOnUse">
<stop stop-color="#F85493"/>
<stop offset="1" stop-color="#D877E4"/>
</linearGradient>
</defs>
</svg>
